<svg xmlns="http://www.w3.org/2000/svg" xmlns:xlink="http://www.w3.org/1999/xlink" width="1600" height="1600" version="1.1" xml:space="preserve"><g transform="translate(200, 1400) scale(1, -1)"><path id="tower" d="M1100 700l-200 -200h-600l-200 200v500h200v-200h200v200h200v-200h200v200h200v-500zM250 400h700q21 0 35.5 -14.5t14.5 -35.5t-14.5 -35.5t-35.5 -14.5h-12l137 -100h-950l137 100h-12q-21 0 -35.5 14.5t-14.5 35.5t14.5 35.5t35.5 14.5zM50 100h1100q21 0 35.5 -14.5 t14.5 -35.5v-50h-1200v50q0 21 14.5 35.5t35.5 14.5z"/></g></svg>