<svg xmlns="http://www.w3.org/2000/svg" id="svg2" width="160" height="32" onload="onLoad(evt)" onresize="onResize(evt)" version="1.1"><title id="title2818">WireframeSketcher SVG asset</title><metadata id="metadata7"/><script><![CDATA[
 	var $justified = true;
 ]]></script><script src="_button-bar.js"/><script><![CDATA[
 	var backgroundLeftD, backgroundRightD;
 	
 	var superOnLoad = onLoad;
 	onLoad = function(evt) {
 		superOnLoad(evt);
 		
 		// Templatize paths
 		backgroundLeftD = backgroundLeft.getAttribute("d").
 			replace(/39/g, "{w}").replace(/31/g, "{h1}").replace(/20/g, "{h2}");
 		backgroundRightD = backgroundRight.getAttribute("d").
 			replace(/34/g, "{w}").replace(/20/g, "{h}");
 	};
 	
	function resizeBackground(template, element, x, y, width, height) {
	    if (template === backgroundSingle) {
	        element.setAttribute("x", x - 1);
	        element.setAttribute("height", height - 2);
	        element.setAttribute("width", width);
	    } else if (template === backgroundLeft) {
	        element.setAttribute("d", backgroundLeftD.replace(/{w}/g, width).replace(/{h1}/g, height - 1).replace(/{h2}/g, height - 12));
	        element.setAttribute("transform", "translate(1,0)");
	    } else if (template === backgroundRight) {
	        element.setAttribute("d", backgroundRightD.replace(/{w}/g, width - 5).replace(/{h}/g, height - 12));
	        element.setAttribute("transform", "translate(" + (x - 1) + ",0)");
	    } else {
	        element.setAttribute("x", x - 1);
	        element.setAttribute("height", height - 2);
	        element.setAttribute("width", width);
	    }
	}
 ]]></script><g id="container" fill="#505050" fill-rule="nonzero"><path id="background-left" d="M5,1,39,1,39,31,5,31c-2.77,0-5-2.23-5-5v-20c0-2.77,2.23-5,5-5z"/><rect id="background-single" width="44" height="30" x="0" y="1" ry="5" transform="translate(134)"/><rect id="background-middle" width="44" height="30" x="0" y="1" transform="translate(46)"/><path id="background-right" d="M0,1,34,1c2.8,0,5,2.23,5,5v20c0,2.77-2.2,5-5,5h-34z" transform="translate(92)"/><path id="separator" fill="none" stroke="#000" stroke-dasharray="none" stroke-linecap="butt" stroke-linejoin="miter" stroke-miterlimit="4" stroke-width="2" d="M45,2,45,30"/></g><rect id="bar" width="158" height="30" x="1" y="1" fill="none" stroke="#000" stroke-dasharray="none" stroke-linecap="round" stroke-miterlimit="4" stroke-width="2" ry="5"/></svg>